<svg width="25" height="24" viewBox="0 0 25 24" fill="none" xmlns="http://www.w3.org/2000/svg">
<path d="M21.6667 2L19.6667 4M19.6667 4L22.6667 7L19.1667 10.5L16.1667 7.5M19.6667 4L16.1667 7.5M12.0567 11.61C12.573 12.1195 12.9835 12.726 13.2644 13.3948C13.5454 14.0635 13.6913 14.7813 13.6937 15.5066C13.6961 16.232 13.555 16.9507 13.2786 17.6213C13.0021 18.2919 12.5957 18.9012 12.0828 19.4141C11.5699 19.9271 10.9606 20.3334 10.29 20.6099C9.61934 20.8864 8.90066 21.0275 8.17529 21.025C7.44992 21.0226 6.7322 20.8767 6.06345 20.5958C5.3947 20.3148 4.78812 19.9043 4.27866 19.388C3.27679 18.3507 2.72242 16.9614 2.73495 15.5193C2.74748 14.0772 3.32591 12.6977 4.34565 11.678C5.3654 10.6583 6.74487 10.0798 8.18695 10.0673C9.62903 10.0548 11.0183 10.6091 12.0557 11.611L12.0567 11.61ZM12.0567 11.61L16.1667 7.5" stroke="#1E1E1E" stroke-width="2.5" stroke-linecap="round" stroke-linejoin="round"/>
</svg>
